{"glyphs":{" ":{"ha":694,"x_min":0,"x_max":0,"o":""},"A":{"ha":913,"x_min":199,"x_max":978,"o":"m 978 239 q 833 246 913 246 q 682 239 756 246 l 682 264 q 761 301 761 267 q 747 351 761 317 l 690 506 l 428 506 l 382 386 q 365 317 365 339 q 469 264 365 264 l 469 239 q 325 246 385 246 q 199 239 267 246 l 199 264 q 285 297 254 264 q 326 375 304 318 l 510 860 q 418 906 497 900 l 418 931 q 588 921 508 921 q 756 931 688 921 l 756 906 q 658 853 669 903 l 868 338 q 907 283 885 299 q 978 264 929 267 l 978 239 m 671 547 l 550 846 l 443 547 l 671 547 z "},"B":{"ha":833,"x_min":282,"x_max":893,"o":"m 893 426 q 572 239 893 239 q 473 242 539 239 q 372 244 407 244 q 282 239 343 244 l 282 263 q 360 276 339 263 q 382 342 382 290 l 382 836 q 354 896 382 883 q 282 906 340 901 l 282 929 q 368 922 357 922 q 453 926 397 922 q 538 929 510 929 q 822 772 822 929 q 763 663 822 707 q 642 613 715 628 q 808 567 742 607 q 893 426 893 517 m 708 767 q 533 899 708 899 q 493 899 521 899 l 493 624 q 526 622 517 622 q 708 767 708 622 m 776 421 q 539 594 776 594 q 493 593 524 594 l 493 394 q 504 304 493 324 q 589 271 522 271 q 718 306 667 271 q 776 421 776 346 z "},"C":{"ha":879,"x_min":232,"x_max":943,"o":"m 943 422 l 917 279 q 657 228 793 228 q 356 325 475 228 q 232 582 232 425 q 361 840 232 738 q 668 940 486 940 q 928 890 792 940 q 939 751 936 832 l 917 751 q 678 910 874 910 q 444 822 535 910 q 354 608 354 733 q 442 375 354 476 q 685 264 536 264 q 838 307 776 264 q 917 428 900 350 l 943 422 z "},"D":{"ha":910,"x_min":201,"x_max":975,"o":"m 975 588 q 814 311 975 401 q 486 239 686 239 q 422 240 464 239 q 358 242 379 242 q 201 239 274 242 l 201 263 q 275 275 257 263 q 299 342 299 290 l 299 836 q 271 894 299 882 q 201 904 257 901 l 201 929 q 296 925 238 925 q 381 925 324 925 q 467 926 438 926 q 832 842 711 926 q 975 588 975 740 m 853 574 q 736 821 853 736 q 464 896 633 896 q 442 894 460 896 q 411 894 424 894 l 408 894 l 408 400 q 428 301 408 325 q 522 274 451 274 q 758 350 669 274 q 853 574 853 429 z "},"E":{"ha":844,"x_min":271,"x_max":904,"o":"m 904 386 q 856 235 864 318 q 608 239 708 238 q 482 242 569 239 q 367 244 411 244 q 271 239 340 242 l 271 263 q 346 275 326 263 q 371 342 371 292 l 371 822 q 346 889 371 874 q 271 901 326 901 l 271 926 q 367 921 308 924 q 482 922 411 919 q 608 925 569 925 q 856 929 708 926 q 904 779 864 847 l 876 772 q 783 875 843 850 q 642 894 739 894 q 528 886 551 894 q 481 796 481 868 l 481 618 l 622 618 l 651 649 q 658 649 656 651 l 706 601 q 706 594 708 597 l 658 547 q 651 547 656 544 l 624 575 l 481 575 l 481 368 q 528 279 481 297 q 642 271 551 271 q 783 289 739 271 q 876 392 843 315 l 904 386 z "},"F":{"ha":844,"x_min":271,"x_max":906,"o":"m 906 778 l 876 771 q 783 874 843 849 q 642 893 739 893 q 533 886 556 893 q 482 813 488 871 l 482 618 l 621 618 l 651 649 q 657 649 654 651 l 706 601 q 706 594 707 597 l 657 547 q 651 547 654 544 l 624 574 l 482 574 l 482 393 q 493 297 482 318 q 581 263 511 263 l 581 239 q 510 243 564 239 q 439 247 465 247 q 356 243 408 247 q 272 239 292 239 l 272 263 q 349 276 328 263 q 372 342 371 290 l 374 821 q 347 888 374 872 q 271 900 328 900 l 271 925 q 367 919 308 922 q 483 921 411 918 q 608 924 571 924 q 856 929 710 925 q 906 778 864 846 z "},"G":{"ha":926,"x_min":183,"x_max":992,"o":"m 992 510 q 908 485 926 508 q 893 406 893 467 l 893 317 l 911 300 l 911 281 q 604 226 742 226 q 299 322 415 226 q 183 582 183 418 q 307 838 183 736 q 614 940 431 940 q 894 888 729 940 l 914 751 l 888 751 q 794 872 869 831 q 629 910 728 910 q 389 813 478 910 q 307 590 307 724 q 392 364 307 460 q 631 260 485 260 q 783 296 722 260 l 783 443 q 758 499 783 486 q 685 510 742 507 l 685 535 q 839 526 849 526 q 992 535 856 526 l 992 510 z "},"H":{"ha":957,"x_min":151,"x_max":1025,"o":"m 1025 928 l 1024 904 q 942 876 960 901 q 928 799 928 860 l 928 343 q 953 276 928 293 q 1024 263 972 264 l 1024 239 q 954 244 1006 239 q 883 249 910 249 q 801 244 853 249 q 719 239 740 239 l 719 263 q 792 275 772 263 q 817 342 817 292 l 817 572 l 360 572 l 360 381 q 369 294 360 313 q 454 264 388 264 l 458 239 q 388 244 440 239 q 318 249 344 249 q 235 244 288 249 q 151 239 172 239 l 151 263 q 224 275 206 263 q 249 342 249 290 l 249 836 q 224 893 249 879 q 151 904 208 901 l 151 928 q 306 919 313 919 q 382 922 335 919 q 458 928 443 928 l 458 904 q 376 881 393 901 q 360 799 360 861 l 360 617 l 817 617 l 817 836 q 794 893 817 882 q 719 904 782 900 l 719 928 q 794 924 742 928 q 871 919 843 919 q 950 924 899 919 q 1025 928 1001 928 z "},"I":{"ha":542,"x_min":272,"x_max":581,"o":"m 581 263 l 579 239 q 510 244 561 239 q 439 249 465 249 q 356 244 408 249 q 272 239 293 239 l 272 263 q 344 275 326 263 q 371 342 371 290 l 371 836 q 346 893 371 879 q 272 904 329 901 l 272 928 q 426 922 425 922 q 581 928 457 922 l 581 904 q 497 881 514 901 q 479 799 479 860 l 479 381 q 490 294 479 313 q 575 263 508 263 l 581 263 z "},"J":{"ha":610,"x_min":313,"x_max":653,"o":"m 653 904 q 565 883 585 903 q 546 799 546 864 l 546 328 q 313 31 546 31 l 314 57 q 413 133 381 57 q 436 253 436 188 l 436 836 q 407 894 436 882 q 329 904 390 901 l 329 928 q 421 924 356 928 q 513 919 479 919 q 583 922 539 919 q 653 928 635 928 l 653 904 z "},"K":{"ha":900,"x_min":211,"x_max":964,"o":"m 964 239 q 930 241 953 239 q 896 243 907 243 q 838 242 874 243 q 781 239 794 239 l 421 582 l 693 829 q 731 879 731 863 l 731 879 q 665 904 729 900 l 665 928 q 792 919 744 919 q 922 928 840 919 l 922 904 q 751 826 833 900 l 522 622 l 811 346 q 964 263 894 265 l 964 239 m 518 263 l 518 239 q 447 243 501 239 q 376 247 403 247 q 293 243 344 247 q 211 239 231 239 l 211 263 q 283 275 265 263 q 310 342 310 290 l 310 836 q 285 893 310 879 q 211 904 268 901 l 211 928 q 300 922 236 928 q 389 917 356 917 q 454 922 411 917 q 518 928 497 928 l 518 904 q 436 881 453 901 q 419 799 419 861 l 419 343 q 440 280 419 296 q 518 263 461 264 z "},"L":{"ha":843,"x_min":272,"x_max":903,"o":"m 903 390 l 861 236 q 500 243 621 243 q 274 239 424 243 l 272 263 q 364 286 344 263 q 378 369 378 304 l 378 836 q 353 893 378 879 q 279 904 336 901 l 279 928 q 368 924 300 928 q 458 919 425 919 q 522 924 482 919 q 588 929 571 928 l 588 904 q 505 881 522 901 q 488 799 488 860 l 488 382 q 521 294 488 317 q 629 275 550 275 q 788 292 743 275 q 876 396 851 315 l 903 390 z "},"M":{"ha":1147,"x_min":143,"x_max":1229,"o":"m 1229 239 q 1144 244 1211 239 q 1058 249 1090 249 q 969 244 1026 249 q 879 239 906 239 l 878 265 q 978 289 958 265 q 997 392 997 313 l 997 869 l 735 779 l 735 381 q 750 290 735 313 q 835 263 768 263 l 835 239 q 764 244 817 239 q 694 249 719 249 q 611 244 663 249 q 526 239 549 239 l 526 263 q 600 275 581 263 q 625 342 625 290 l 625 783 l 376 869 l 376 392 q 396 289 376 313 q 494 265 415 265 l 494 239 q 404 244 468 239 q 315 249 347 249 q 229 244 282 249 q 143 239 163 239 l 143 265 q 269 425 268 265 l 271 801 q 257 881 271 863 q 179 904 240 904 l 179 929 q 315 925 282 924 q 374 929 349 925 l 686 821 l 993 929 q 1058 925 1017 926 q 1194 929 1090 924 l 1194 904 q 1121 885 1136 904 q 1106 801 1106 865 l 1104 425 q 1229 265 1103 265 l 1229 239 z "},"N":{"ha":950,"x_min":158,"x_max":1017,"o":"m 1017 239 q 932 244 999 239 q 846 249 878 249 q 756 244 814 249 q 667 239 693 239 l 665 265 q 767 290 746 265 q 783 392 783 313 l 783 869 l 392 731 l 392 392 q 411 289 392 313 q 510 265 431 265 l 510 239 q 419 244 483 239 q 331 249 363 249 q 244 244 297 249 q 158 239 178 239 l 158 265 q 285 425 285 265 l 283 801 q 267 885 282 865 q 194 904 253 904 l 194 929 l 389 928 l 389 790 l 779 928 q 813 926 785 928 q 846 925 842 925 q 982 929 878 924 l 982 904 q 908 885 924 904 q 893 801 893 865 l 892 425 q 1017 265 890 265 l 1017 239 z "},"O":{"ha":929,"x_min":181,"x_max":994,"o":"m 994 583 q 847 332 994 447 q 592 226 711 226 q 299 330 418 226 q 181 585 181 433 q 296 836 181 732 q 579 940 411 940 q 873 837 751 940 q 994 583 994 733 m 592 226 l 590 226 l 592 226 m 815 760 q 706 860 778 821 q 556 899 633 899 q 378 821 444 899 q 299 611 299 732 q 385 371 299 478 q 610 264 472 264 q 796 344 724 264 q 878 551 878 435 q 815 760 878 656 m 639 588 l 590 540 q 585 540 588 536 l 538 586 q 538 594 533 590 l 585 642 q 590 642 588 644 l 639 593 q 639 588 642 589 z "},"P":{"ha":808,"x_min":0,"x_max":867,"o":"m 867 739 q 789 590 867 646 q 606 540 717 540 l 517 540 l 517 381 q 529 294 517 314 q 618 264 547 264 l 617 239 q 546 243 601 239 q 475 246 503 246 q 392 243 443 246 q 308 239 326 239 l 308 264 q 381 275 363 264 q 408 342 408 290 l 408 836 q 382 893 408 879 q 308 904 365 901 l 308 928 q 368 925 321 928 q 429 922 406 922 q 503 925 453 922 q 578 928 553 928 q 775 888 697 928 q 867 739 867 838 m 750 729 q 698 853 750 808 q 553 897 646 897 q 518 896 529 897 l 518 569 l 589 569 q 711 615 669 568 q 750 729 750 657 m 0 0 z "},"Q":{"ha":926,"x_min":183,"x_max":993,"o":"m 993 574 q 907 365 993 461 q 710 244 821 269 q 833 165 757 219 q 918 103 876 133 q 981 74 960 74 l 979 46 q 910 28 940 28 q 801 65 861 28 q 708 133 792 71 q 636 190 672 163 q 556 231 590 224 q 297 336 400 246 q 183 583 183 433 q 306 844 183 742 q 581 940 421 940 q 867 843 749 940 q 993 574 993 739 m 869 557 q 789 797 869 696 q 567 906 701 906 q 372 814 444 906 q 304 606 304 731 q 388 371 304 472 q 607 264 476 264 q 800 353 726 264 q 869 557 869 435 m 639 588 l 592 540 q 585 540 588 536 l 538 586 q 538 594 535 590 l 585 642 q 592 642 588 644 l 639 593 q 639 588 642 590 z "},"R":{"ha":899,"x_min":213,"x_max":964,"o":"m 964 239 q 882 243 890 243 q 783 239 871 243 q 526 565 699 310 q 421 568 469 565 l 421 381 q 435 292 421 313 q 519 263 454 263 l 519 239 q 449 243 506 239 q 379 246 406 246 q 296 243 347 246 q 213 239 229 239 l 213 263 q 286 275 268 263 q 311 342 311 292 l 311 836 q 282 894 311 882 q 213 904 268 901 l 213 929 q 300 924 242 924 q 383 926 328 924 q 467 929 439 929 q 792 757 792 929 q 633 583 792 636 q 776 396 738 440 q 960 263 892 263 q 961 264 961 263 q 963 264 961 264 q 964 263 964 264 l 964 239 m 679 747 q 476 899 679 899 q 421 894 449 899 l 422 604 q 481 599 449 599 q 615 632 561 599 q 679 747 679 672 z "},"S":{"ha":763,"x_min":358,"x_max":818,"o":"m 818 432 q 738 281 818 338 q 551 226 664 226 q 382 263 456 226 l 358 408 l 386 408 q 560 264 432 264 q 672 300 628 264 q 715 394 715 336 q 656 490 715 444 q 544 555 625 514 q 429 632 464 596 q 382 749 382 681 q 451 892 382 839 q 624 940 518 940 q 763 926 675 940 l 779 801 l 753 801 q 610 908 732 908 q 514 876 553 908 q 475 794 475 844 q 529 688 475 731 q 649 624 560 664 q 768 549 731 586 q 818 432 818 500 z "},"T":{"ha":899,"x_min":213,"x_max":963,"o":"m 963 743 l 936 743 q 890 859 924 829 q 764 889 857 889 l 638 889 l 638 388 q 651 290 638 311 q 747 263 671 263 l 746 239 q 575 246 575 246 q 497 243 546 246 q 418 239 439 239 l 418 263 q 501 275 481 263 q 528 342 528 290 l 528 889 l 410 889 q 285 858 318 889 q 239 743 253 828 l 213 743 l 238 954 l 261 954 q 376 926 279 926 l 528 926 l 528 981 q 503 1036 528 1024 q 429 1049 486 1046 l 429 1072 q 583 1067 583 1067 q 738 1074 610 1067 l 738 1049 q 654 1024 672 1047 q 638 944 638 1006 l 638 926 l 799 926 q 914 954 896 926 l 938 954 l 963 743 z "},"U":{"ha":911,"x_min":200,"x_max":976,"o":"m 976 904 q 897 861 914 901 q 888 772 888 839 l 888 496 q 586 228 888 228 q 360 300 431 228 q 294 506 294 368 l 294 790 q 283 874 294 856 q 200 901 265 901 l 200 926 q 273 924 224 926 q 347 921 322 921 q 422 924 372 921 q 493 926 471 926 l 493 904 q 413 868 431 904 q 403 782 403 849 l 403 547 q 440 356 403 421 q 626 265 493 265 q 828 490 828 265 l 828 768 q 815 867 828 846 q 719 904 796 903 l 719 926 q 786 922 742 926 q 853 918 831 918 q 914 922 872 918 q 976 926 956 926 l 976 904 z "},"V":{"ha":924,"x_min":186,"x_max":989,"o":"m 989 904 q 910 851 946 904 q 867 767 896 832 l 618 226 l 576 226 l 321 790 q 186 904 271 901 l 186 928 q 364 921 333 921 q 489 928 363 921 l 489 904 q 413 872 413 900 q 425 832 413 860 l 631 365 l 803 750 q 838 850 838 828 q 749 904 838 899 l 749 928 q 899 924 797 924 q 989 928 921 924 l 989 904 z "},"W":{"ha":1203,"x_min":163,"x_max":1289,"o":"m 1289 901 q 1203 821 1238 899 l 942 226 l 906 226 l 760 519 l 599 226 l 564 226 l 282 822 q 235 882 261 865 q 163 901 210 899 l 163 926 q 268 919 268 919 q 360 922 303 919 q 451 926 435 925 l 451 901 q 383 874 383 897 q 406 814 383 861 l 619 350 l 790 685 l 950 363 l 1133 789 q 1157 864 1157 844 q 1071 901 1157 900 l 1071 926 q 1126 923 1089 926 q 1181 919 1163 919 q 1235 923 1199 919 q 1289 926 1271 926 l 1289 901 z "},"X":{"ha":933,"x_min":175,"x_max":1000,"o":"m 1000 264 l 1000 239 q 879 243 879 243 q 710 239 879 243 l 710 264 q 768 285 768 264 q 742 331 768 299 l 563 538 l 404 353 q 367 292 367 310 q 450 264 367 264 l 450 239 q 297 244 339 244 q 175 239 204 244 l 175 264 q 326 340 263 269 l 535 575 l 301 846 q 182 904 258 894 l 182 928 q 326 918 283 918 q 496 928 363 918 l 496 904 q 421 876 421 903 q 460 814 421 860 l 603 649 l 725 785 q 781 868 781 846 q 707 904 781 897 l 707 928 q 826 919 821 919 q 978 928 808 919 l 978 904 q 797 804 882 900 l 632 617 l 838 375 q 906 303 888 317 q 1000 264 950 264 z "},"Y":{"ha":906,"x_min":206,"x_max":971,"o":"m 971 904 q 851 814 924 899 l 663 590 l 663 393 q 672 297 663 315 q 771 263 692 263 l 771 239 q 693 243 750 240 q 617 246 646 246 q 531 243 586 246 q 444 239 469 239 l 444 263 l 457 263 q 538 283 521 263 q 550 358 550 300 l 550 575 l 332 836 q 206 904 276 904 l 206 928 q 338 919 338 919 q 421 922 369 919 q 503 928 488 926 l 504 904 q 439 881 439 904 q 467 833 439 865 l 636 629 l 796 815 q 828 874 828 853 q 746 904 828 904 l 746 928 q 803 925 764 928 q 860 922 842 922 q 916 924 879 922 q 971 928 953 926 l 971 904 z "},"Z":{"ha":903,"x_min":208,"x_max":968,"o":"m 968 403 l 915 239 l 208 239 l 774 888 l 453 888 q 329 868 365 888 q 267 778 288 844 l 240 778 l 274 939 l 303 939 q 339 925 307 926 q 385 926 301 926 l 936 926 l 376 278 l 692 278 q 850 300 801 278 q 942 408 907 328 l 968 403 z "},"[":{"ha":475,"x_min":0,"x_max":0,"o":""},"\\":{"ha":475,"x_min":0,"x_max":0,"o":""},"]":{"ha":475,"x_min":0,"x_max":0,"o":""},"^":{"ha":475,"x_min":0,"x_max":0,"o":""},"_":{"ha":475,"x_min":0,"x_max":0,"o":""},"`":{"ha":475,"x_min":0,"x_max":0,"o":""},"a":{"ha":913,"x_min":199,"x_max":978,"o":"m 978 239 q 833 246 913 246 q 682 239 756 246 l 682 264 q 761 301 761 267 q 747 351 761 317 l 690 506 l 428 506 l 382 386 q 365 317 365 339 q 469 264 365 264 l 469 239 q 325 246 385 246 q 199 239 267 246 l 199 264 q 285 297 254 264 q 326 375 304 318 l 510 860 q 418 906 497 900 l 418 931 q 588 921 508 921 q 756 931 688 921 l 756 906 q 658 853 669 903 l 868 338 q 907 283 885 299 q 978 264 929 267 l 978 239 m 671 547 l 550 846 l 443 547 l 671 547 z "},"b":{"ha":833,"x_min":282,"x_max":893,"o":"m 893 426 q 572 239 893 239 q 473 242 539 239 q 372 244 407 244 q 282 239 343 244 l 282 263 q 360 276 339 263 q 382 342 382 290 l 382 836 q 354 896 382 883 q 282 906 340 901 l 282 929 q 368 922 357 922 q 453 926 397 922 q 538 929 510 929 q 822 772 822 929 q 763 663 822 707 q 642 613 715 628 q 808 567 742 607 q 893 426 893 517 m 708 767 q 533 899 708 899 q 493 899 521 899 l 493 624 q 526 622 517 622 q 708 767 708 622 m 776 421 q 539 594 776 594 q 493 593 524 594 l 493 394 q 504 304 493 324 q 589 271 522 271 q 718 306 667 271 q 776 421 776 346 z "},"c":{"ha":879,"x_min":232,"x_max":943,"o":"m 943 422 l 917 279 q 657 228 793 228 q 356 325 475 228 q 232 582 232 425 q 361 840 232 738 q 668 940 486 940 q 928 890 792 940 q 939 751 936 832 l 917 751 q 678 910 874 910 q 444 822 535 910 q 354 608 354 733 q 442 375 354 476 q 685 264 536 264 q 838 307 776 264 q 917 428 900 350 l 943 422 z "},"d":{"ha":910,"x_min":201,"x_max":975,"o":"m 975 588 q 814 311 975 401 q 486 239 686 239 q 422 240 464 239 q 358 242 379 242 q 201 239 274 242 l 201 263 q 275 275 257 263 q 299 342 299 290 l 299 836 q 271 894 299 882 q 201 904 257 901 l 201 929 q 296 925 238 925 q 381 925 324 925 q 467 926 438 926 q 832 842 711 926 q 975 588 975 740 m 853 574 q 736 821 853 736 q 464 896 633 896 q 442 894 460 896 q 411 894 424 894 l 408 894 l 408 400 q 428 301 408 325 q 522 274 451 274 q 758 350 669 274 q 853 574 853 429 z "},"e":{"ha":844,"x_min":271,"x_max":904,"o":"m 904 386 q 856 235 864 318 q 608 239 708 238 q 482 242 569 239 q 367 244 411 244 q 271 239 340 242 l 271 263 q 346 275 326 263 q 371 342 371 292 l 371 822 q 346 889 371 874 q 271 901 326 901 l 271 926 q 367 921 308 924 q 482 922 411 919 q 608 925 569 925 q 856 929 708 926 q 904 779 864 847 l 876 772 q 783 875 843 850 q 642 894 739 894 q 528 886 551 894 q 481 796 481 868 l 481 618 l 622 618 l 651 649 q 658 649 656 651 l 706 601 q 706 594 708 597 l 658 547 q 651 547 656 544 l 624 575 l 481 575 l 481 368 q 528 279 481 297 q 642 271 551 271 q 783 289 739 271 q 876 392 843 315 l 904 386 z "},"f":{"ha":844,"x_min":271,"x_max":906,"o":"m 906 778 l 876 771 q 783 874 843 849 q 642 893 739 893 q 533 886 556 893 q 482 813 488 871 l 482 618 l 621 618 l 651 649 q 657 649 654 651 l 706 601 q 706 594 707 597 l 657 547 q 651 547 654 544 l 624 574 l 482 574 l 482 393 q 493 297 482 318 q 581 263 511 263 l 581 239 q 510 243 564 239 q 439 247 465 247 q 356 243 408 247 q 272 239 292 239 l 272 263 q 349 276 328 263 q 372 342 371 290 l 374 821 q 347 888 374 872 q 271 900 328 900 l 271 925 q 367 919 308 922 q 483 921 411 918 q 608 924 571 924 q 856 929 710 925 q 906 778 864 846 z "},"g":{"ha":926,"x_min":183,"x_max":992,"o":"m 992 510 q 908 485 926 508 q 893 406 893 467 l 893 317 l 911 300 l 911 281 q 604 226 742 226 q 299 322 415 226 q 183 582 183 418 q 307 838 183 736 q 614 940 431 940 q 894 888 729 940 l 914 751 l 888 751 q 794 872 869 831 q 629 910 728 910 q 389 813 478 910 q 307 590 307 724 q 392 364 307 460 q 631 260 485 260 q 783 296 722 260 l 783 443 q 758 499 783 486 q 685 510 742 507 l 685 535 q 839 526 849 526 q 992 535 856 526 l 992 510 z "},"h":{"ha":957,"x_min":151,"x_max":1025,"o":"m 1025 928 l 1024 904 q 942 876 960 901 q 928 799 928 860 l 928 343 q 953 276 928 293 q 1024 263 972 264 l 1024 239 q 954 244 1006 239 q 883 249 910 249 q 801 244 853 249 q 719 239 740 239 l 719 263 q 792 275 772 263 q 817 342 817 292 l 817 572 l 360 572 l 360 381 q 369 294 360 313 q 454 264 388 264 l 458 239 q 388 244 440 239 q 318 249 344 249 q 235 244 288 249 q 151 239 172 239 l 151 263 q 224 275 206 263 q 249 342 249 290 l 249 836 q 224 893 249 879 q 151 904 208 901 l 151 928 q 306 919 313 919 q 382 922 335 919 q 458 928 443 928 l 458 904 q 376 881 393 901 q 360 799 360 861 l 360 617 l 817 617 l 817 836 q 794 893 817 882 q 719 904 782 900 l 719 928 q 794 924 742 928 q 871 919 843 919 q 950 924 899 919 q 1025 928 1001 928 z "},"i":{"ha":542,"x_min":272,"x_max":581,"o":"m 581 263 l 579 239 q 510 244 561 239 q 439 249 465 249 q 356 244 408 249 q 272 239 293 239 l 272 263 q 344 275 326 263 q 371 342 371 290 l 371 836 q 346 893 371 879 q 272 904 329 901 l 272 928 q 426 922 425 922 q 581 928 457 922 l 581 904 q 497 881 514 901 q 479 799 479 860 l 479 381 q 490 294 479 313 q 575 263 508 263 l 581 263 z "},"j":{"ha":610,"x_min":313,"x_max":653,"o":"m 653 904 q 565 883 585 903 q 546 799 546 864 l 546 328 q 313 31 546 31 l 314 57 q 413 133 381 57 q 436 253 436 188 l 436 836 q 407 894 436 882 q 329 904 390 901 l 329 928 q 421 924 356 928 q 513 919 479 919 q 583 922 539 919 q 653 928 635 928 l 653 904 z "},"k":{"ha":900,"x_min":211,"x_max":964,"o":"m 964 239 q 930 241 953 239 q 896 243 907 243 q 838 242 874 243 q 781 239 794 239 l 421 582 l 693 829 q 731 879 731 863 l 731 879 q 665 904 729 900 l 665 928 q 792 919 744 919 q 922 928 840 919 l 922 904 q 751 826 833 900 l 522 622 l 811 346 q 964 263 894 265 l 964 239 m 518 263 l 518 239 q 447 243 501 239 q 376 247 403 247 q 293 243 344 247 q 211 239 231 239 l 211 263 q 283 275 265 263 q 310 342 310 290 l 310 836 q 285 893 310 879 q 211 904 268 901 l 211 928 q 300 922 236 928 q 389 917 356 917 q 454 922 411 917 q 518 928 497 928 l 518 904 q 436 881 453 901 q 419 799 419 861 l 419 343 q 440 280 419 296 q 518 263 461 264 z "},"l":{"ha":843,"x_min":272,"x_max":903,"o":"m 903 390 l 861 236 q 500 243 621 243 q 274 239 424 243 l 272 263 q 364 286 344 263 q 378 369 378 304 l 378 836 q 353 893 378 879 q 279 904 336 901 l 279 928 q 368 924 300 928 q 458 919 425 919 q 522 924 482 919 q 588 929 571 928 l 588 904 q 505 881 522 901 q 488 799 488 860 l 488 382 q 521 294 488 317 q 629 275 550 275 q 788 292 743 275 q 876 396 851 315 l 903 390 z "},"m":{"ha":1147,"x_min":143,"x_max":1229,"o":"m 1229 239 q 1144 244 1211 239 q 1058 249 1090 249 q 969 244 1026 249 q 879 239 906 239 l 878 265 q 978 289 958 265 q 997 392 997 313 l 997 869 l 735 779 l 735 381 q 750 290 735 313 q 835 263 768 263 l 835 239 q 764 244 817 239 q 694 249 719 249 q 611 244 663 249 q 526 239 549 239 l 526 263 q 600 275 581 263 q 625 342 625 290 l 625 783 l 376 869 l 376 392 q 396 289 376 313 q 494 265 415 265 l 494 239 q 404 244 468 239 q 315 249 347 249 q 229 244 282 249 q 143 239 163 239 l 143 265 q 269 425 268 265 l 271 801 q 257 881 271 863 q 179 904 240 904 l 179 929 q 315 925 282 924 q 374 929 349 925 l 686 821 l 993 929 q 1058 925 1017 926 q 1194 929 1090 924 l 1194 904 q 1121 885 1136 904 q 1106 801 1106 865 l 1104 425 q 1229 265 1103 265 l 1229 239 z "},"n":{"ha":950,"x_min":158,"x_max":1017,"o":"m 1017 239 q 932 244 999 239 q 846 249 878 249 q 756 244 814 249 q 667 239 693 239 l 665 265 q 767 290 746 265 q 783 392 783 313 l 783 869 l 392 731 l 392 392 q 411 289 392 313 q 510 265 431 265 l 510 239 q 419 244 483 239 q 331 249 363 249 q 244 244 297 249 q 158 239 178 239 l 158 265 q 285 425 285 265 l 283 801 q 267 885 282 865 q 194 904 253 904 l 194 929 l 389 928 l 389 790 l 779 928 q 813 926 785 928 q 846 925 842 925 q 982 929 878 924 l 982 904 q 908 885 924 904 q 893 801 893 865 l 892 425 q 1017 265 890 265 l 1017 239 z "},"o":{"ha":929,"x_min":181,"x_max":994,"o":"m 994 583 q 847 332 994 447 q 592 226 711 226 q 299 330 418 226 q 181 585 181 433 q 296 836 181 732 q 579 940 411 940 q 873 837 751 940 q 994 583 994 733 m 592 226 l 590 226 l 592 226 m 815 760 q 706 860 778 821 q 556 899 633 899 q 378 821 444 899 q 299 611 299 732 q 385 371 299 478 q 610 264 472 264 q 796 344 724 264 q 878 551 878 435 q 815 760 878 656 m 639 588 l 590 540 q 585 540 588 536 l 538 586 q 538 594 533 590 l 585 642 q 590 642 588 644 l 639 593 q 639 588 642 589 z "},"p":{"ha":808,"x_min":0,"x_max":867,"o":"m 867 739 q 789 590 867 646 q 606 540 717 540 l 517 540 l 517 381 q 529 294 517 314 q 618 264 547 264 l 617 239 q 546 243 601 239 q 475 246 503 246 q 392 243 443 246 q 308 239 326 239 l 308 264 q 381 275 363 264 q 408 342 408 290 l 408 836 q 382 893 408 879 q 308 904 365 901 l 308 928 q 368 925 321 928 q 429 922 406 922 q 503 925 453 922 q 578 928 553 928 q 775 888 697 928 q 867 739 867 838 m 750 729 q 698 853 750 808 q 553 897 646 897 q 518 896 529 897 l 518 569 l 589 569 q 711 615 669 568 q 750 729 750 657 m 0 0 z "},"q":{"ha":926,"x_min":183,"x_max":993,"o":"m 993 574 q 907 365 993 461 q 710 244 821 269 q 833 165 757 219 q 918 103 876 133 q 981 74 960 74 l 979 46 q 910 28 940 28 q 801 65 861 28 q 708 133 792 71 q 636 190 672 163 q 556 231 590 224 q 297 336 400 246 q 183 583 183 433 q 306 844 183 742 q 581 940 421 940 q 867 843 749 940 q 993 574 993 739 m 869 557 q 789 797 869 696 q 567 906 701 906 q 372 814 444 906 q 304 606 304 731 q 388 371 304 472 q 607 264 476 264 q 800 353 726 264 q 869 557 869 435 m 639 588 l 592 540 q 585 540 588 536 l 538 586 q 538 594 535 590 l 585 642 q 592 642 588 644 l 639 593 q 639 588 642 590 z "},"r":{"ha":899,"x_min":213,"x_max":964,"o":"m 964 239 q 882 243 890 243 q 783 239 871 243 q 526 565 699 310 q 421 568 469 565 l 421 381 q 435 292 421 313 q 519 263 454 263 l 519 239 q 449 243 506 239 q 379 246 406 246 q 296 243 347 246 q 213 239 229 239 l 213 263 q 286 275 268 263 q 311 342 311 292 l 311 836 q 282 894 311 882 q 213 904 268 901 l 213 929 q 300 924 242 924 q 383 926 328 924 q 467 929 439 929 q 792 757 792 929 q 633 583 792 636 q 776 396 738 440 q 960 263 892 263 q 961 264 961 263 q 963 264 961 264 q 964 263 964 264 l 964 239 m 679 747 q 476 899 679 899 q 421 894 449 899 l 422 604 q 481 599 449 599 q 615 632 561 599 q 679 747 679 672 z "},"s":{"ha":763,"x_min":358,"x_max":818,"o":"m 818 432 q 738 281 818 338 q 551 226 664 226 q 382 263 456 226 l 358 408 l 386 408 q 560 264 432 264 q 672 300 628 264 q 715 394 715 336 q 656 490 715 444 q 544 555 625 514 q 429 632 464 596 q 382 749 382 681 q 451 892 382 839 q 624 940 518 940 q 763 926 675 940 l 779 801 l 753 801 q 610 908 732 908 q 514 876 553 908 q 475 794 475 844 q 529 688 475 731 q 649 624 560 664 q 768 549 731 586 q 818 432 818 500 z "},"t":{"ha":899,"x_min":213,"x_max":963,"o":"m 963 743 l 936 743 q 890 859 924 829 q 764 889 857 889 l 638 889 l 638 388 q 651 290 638 311 q 747 263 671 263 l 746 239 q 575 246 575 246 q 497 243 546 246 q 418 239 439 239 l 418 263 q 501 275 481 263 q 528 342 528 290 l 528 889 l 410 889 q 285 858 318 889 q 239 743 253 828 l 213 743 l 238 954 l 261 954 q 376 926 279 926 l 528 926 l 528 981 q 503 1036 528 1024 q 429 1049 486 1046 l 429 1072 q 583 1067 583 1067 q 738 1074 610 1067 l 738 1049 q 654 1024 672 1047 q 638 944 638 1006 l 638 926 l 799 926 q 914 954 896 926 l 938 954 l 963 743 z "},"u":{"ha":911,"x_min":200,"x_max":976,"o":"m 976 904 q 897 861 914 901 q 888 772 888 839 l 888 496 q 586 228 888 228 q 360 300 431 228 q 294 506 294 368 l 294 790 q 283 874 294 856 q 200 901 265 901 l 200 926 q 273 924 224 926 q 347 921 322 921 q 422 924 372 921 q 493 926 471 926 l 493 904 q 413 868 431 904 q 403 782 403 849 l 403 547 q 440 356 403 421 q 626 265 493 265 q 828 490 828 265 l 828 768 q 815 867 828 846 q 719 904 796 903 l 719 926 q 786 922 742 926 q 853 918 831 918 q 914 922 872 918 q 976 926 956 926 l 976 904 z "},"v":{"ha":924,"x_min":186,"x_max":989,"o":"m 989 904 q 910 851 946 904 q 867 767 896 832 l 618 226 l 576 226 l 321 790 q 186 904 271 901 l 186 928 q 364 921 333 921 q 489 928 363 921 l 489 904 q 413 872 413 900 q 425 832 413 860 l 631 365 l 803 750 q 838 850 838 828 q 749 904 838 899 l 749 928 q 899 924 797 924 q 989 928 921 924 l 989 904 z "},"w":{"ha":1203,"x_min":163,"x_max":1289,"o":"m 1289 901 q 1203 821 1238 899 l 942 226 l 906 226 l 760 519 l 599 226 l 564 226 l 282 822 q 235 882 261 865 q 163 901 210 899 l 163 926 q 268 919 268 919 q 360 922 303 919 q 451 926 435 925 l 451 901 q 383 874 383 897 q 406 814 383 861 l 619 350 l 790 685 l 950 363 l 1133 789 q 1157 864 1157 844 q 1071 901 1157 900 l 1071 926 q 1126 923 1089 926 q 1181 919 1163 919 q 1235 923 1199 919 q 1289 926 1271 926 l 1289 901 z "},"x":{"ha":933,"x_min":175,"x_max":1000,"o":"m 1000 264 l 1000 239 q 879 243 879 243 q 710 239 879 243 l 710 264 q 768 285 768 264 q 742 331 768 299 l 563 538 l 404 353 q 367 292 367 310 q 450 264 367 264 l 450 239 q 297 244 339 244 q 175 239 204 244 l 175 264 q 326 340 263 269 l 535 575 l 301 846 q 182 904 258 894 l 182 928 q 326 918 283 918 q 496 928 363 918 l 496 904 q 421 876 421 903 q 460 814 421 860 l 603 649 l 725 785 q 781 868 781 846 q 707 904 781 897 l 707 928 q 826 919 821 919 q 978 928 808 919 l 978 904 q 797 804 882 900 l 632 617 l 838 375 q 906 303 888 317 q 1000 264 950 264 z "},"y":{"ha":906,"x_min":206,"x_max":971,"o":"m 971 904 q 851 814 924 899 l 663 590 l 663 393 q 672 297 663 315 q 771 263 692 263 l 771 239 q 693 243 750 240 q 617 246 646 246 q 531 243 586 246 q 444 239 469 239 l 444 263 l 457 263 q 538 283 521 263 q 550 358 550 300 l 550 575 l 332 836 q 206 904 276 904 l 206 928 q 338 919 338 919 q 421 922 369 919 q 503 928 488 926 l 504 904 q 439 881 439 904 q 467 833 439 865 l 636 629 l 796 815 q 828 874 828 853 q 746 904 828 904 l 746 928 q 803 925 764 928 q 860 922 842 922 q 916 924 879 922 q 971 928 953 926 l 971 904 z "},"z":{"ha":903,"x_min":208,"x_max":968,"o":"m 968 403 l 915 239 l 208 239 l 774 888 l 453 888 q 329 868 365 888 q 267 778 288 844 l 240 778 l 274 939 l 303 939 q 339 925 307 926 q 385 926 301 926 l 936 926 l 376 278 l 692 278 q 850 300 801 278 q 942 408 907 328 l 968 403 z "}}}
